<svg xmlns="http://www.w3.org/2000/svg" viewBox="0 0 100 100">
  <defs>
    <linearGradient id="brandGradient" x1="0%" y1="0%" x2="100%" y2="100%">
      <stop offset="0%" style="stop-color:#639283;stop-opacity:1" />
      <stop offset="100%" style="stop-color:#41818E;stop-opacity:1" />
    </linearGradient>
    <filter id="shadow" x="-20%" y="-20%" width="140%" height="140%">
      <feDropShadow dx="1" dy="2" stdDeviation="2" flood-opacity="0.3"/>
    </filter>
  </defs>
  
  <!-- Background circle with brand gradient -->
  <circle cx="50" cy="50" r="45" fill="url(#brandGradient)" filter="url(#shadow)" stroke="#2C3B49" stroke-width="1"/>
  
  <!-- Modern "E" letterform -->
  <g fill="white">
    <!-- Main E structure -->
    <rect x="20" y="25" width="8" height="50" rx="2"/>
    <rect x="20" y="25" width="35" height="8" rx="2"/>
    <rect x="20" y="46" width="30" height="8" rx="2"/>
    <rect x="20" y="67" width="35" height="8" rx="2"/>
    
    <!-- Modern accent - recycling symbol -->
    <g transform="translate(60,30) scale(0.8)">
      <path d="M8 2 L12 8 L8 8 L5 3 L8 2 Z" fill="#88B04B"/>
      <path d="M2 8 L8 8 L8 12 L3 12 L2 8 Z" fill="#88B04B"/>
      <path d="M8 12 L2 6 L5 6 L8 9 L8 12 Z" fill="#88B04B"/>
    </g>
  </g>
  
  <!-- Subtle metal texture overlay -->
  <circle cx="50" cy="50" r="45" fill="none" stroke="rgba(255,255,255,0.1)" stroke-width="0.5"/>
</svg> 